<mxfile host="app.diagrams.net" modified="2024-05-07T12:34:25.739Z" agent="Mozilla/5.0 (Windows NT 10.0; Win64; x64) AppleWebKit/537.36 (KHTML, like Gecko) Chrome/123.0.0.0 Safari/537.36 OPR/109.0.0.0" etag="9xC1H3MEznxc1jq2NR8R" version="24.3.1" type="github">
  <diagram name="Page-1" id="UABw9eQJKf7q00g_TLCL">
    <mxGraphModel dx="809" dy="766" grid="1" gridSize="10" guides="1" tooltips="1" connect="1" arrows="1" fold="1" page="1" pageScale="1" pageWidth="850" pageHeight="1100" math="0" shadow="0">
      <root>
        <mxCell id="0" />
        <mxCell id="1" parent="0" />
        <mxCell id="c6k_myTNWJ2E5DknQ_kU-1" style="edgeStyle=orthogonalEdgeStyle;rounded=0;orthogonalLoop=1;jettySize=auto;html=1;entryX=0.5;entryY=0;entryDx=0;entryDy=0;" edge="1" parent="1" source="c6k_myTNWJ2E5DknQ_kU-3" target="c6k_myTNWJ2E5DknQ_kU-42">
          <mxGeometry relative="1" as="geometry">
            <mxPoint x="513" y="250" as="targetPoint" />
          </mxGeometry>
        </mxCell>
        <mxCell id="c6k_myTNWJ2E5DknQ_kU-2" value="Research project information" style="edgeLabel;html=1;align=center;verticalAlign=middle;resizable=0;points=[];" connectable="0" vertex="1" parent="c6k_myTNWJ2E5DknQ_kU-1">
          <mxGeometry x="-0.3634" y="1" relative="1" as="geometry">
            <mxPoint as="offset" />
          </mxGeometry>
        </mxCell>
        <mxCell id="c6k_myTNWJ2E5DknQ_kU-3" value="&lt;b&gt;UGC&lt;/b&gt;" style="rounded=0;whiteSpace=wrap;html=1;fillColor=#ffe6cc;strokeColor=#d79b00;" vertex="1" parent="1">
          <mxGeometry x="143" y="130" width="140" height="80" as="geometry" />
        </mxCell>
        <mxCell id="c6k_myTNWJ2E5DknQ_kU-4" style="edgeStyle=orthogonalEdgeStyle;rounded=0;orthogonalLoop=1;jettySize=auto;html=1;entryX=0.5;entryY=0;entryDx=0;entryDy=0;" edge="1" parent="1" source="c6k_myTNWJ2E5DknQ_kU-6" target="c6k_myTNWJ2E5DknQ_kU-24">
          <mxGeometry relative="1" as="geometry">
            <Array as="points">
              <mxPoint x="193" y="430" />
              <mxPoint x="193" y="430" />
            </Array>
          </mxGeometry>
        </mxCell>
        <mxCell id="c6k_myTNWJ2E5DknQ_kU-5" value="Proposal Submission" style="edgeLabel;html=1;align=center;verticalAlign=middle;resizable=0;points=[];" connectable="0" vertex="1" parent="c6k_myTNWJ2E5DknQ_kU-4">
          <mxGeometry x="-0.0667" y="1" relative="1" as="geometry">
            <mxPoint as="offset" />
          </mxGeometry>
        </mxCell>
        <mxCell id="c6k_myTNWJ2E5DknQ_kU-6" value="&lt;b&gt;Researchers&lt;/b&gt;" style="rounded=0;whiteSpace=wrap;html=1;fillColor=#ffe6cc;strokeColor=#d79b00;" vertex="1" parent="1">
          <mxGeometry x="133" y="310" width="140" height="80" as="geometry" />
        </mxCell>
        <mxCell id="c6k_myTNWJ2E5DknQ_kU-7" style="edgeStyle=orthogonalEdgeStyle;rounded=0;orthogonalLoop=1;jettySize=auto;html=1;exitX=0.5;exitY=0;exitDx=0;exitDy=0;entryX=1;entryY=0.5;entryDx=0;entryDy=0;" edge="1" parent="1" source="c6k_myTNWJ2E5DknQ_kU-9" target="c6k_myTNWJ2E5DknQ_kU-60">
          <mxGeometry relative="1" as="geometry">
            <mxPoint x="543" y="570" as="targetPoint" />
          </mxGeometry>
        </mxCell>
        <mxCell id="c6k_myTNWJ2E5DknQ_kU-8" value="Pre Evaluate" style="edgeLabel;html=1;align=center;verticalAlign=middle;resizable=0;points=[];" connectable="0" vertex="1" parent="c6k_myTNWJ2E5DknQ_kU-7">
          <mxGeometry x="0.0343" y="-1" relative="1" as="geometry">
            <mxPoint as="offset" />
          </mxGeometry>
        </mxCell>
        <mxCell id="c6k_myTNWJ2E5DknQ_kU-9" value="&lt;b&gt;Reviewers&lt;/b&gt;" style="rounded=0;whiteSpace=wrap;html=1;fillColor=#ffe6cc;strokeColor=#d79b00;" vertex="1" parent="1">
          <mxGeometry x="653" y="380" width="140" height="80" as="geometry" />
        </mxCell>
        <mxCell id="c6k_myTNWJ2E5DknQ_kU-10" style="edgeStyle=orthogonalEdgeStyle;rounded=0;orthogonalLoop=1;jettySize=auto;html=1;entryX=0.5;entryY=0;entryDx=0;entryDy=0;" edge="1" parent="1" source="c6k_myTNWJ2E5DknQ_kU-12" target="c6k_myTNWJ2E5DknQ_kU-6">
          <mxGeometry relative="1" as="geometry" />
        </mxCell>
        <mxCell id="c6k_myTNWJ2E5DknQ_kU-11" value="Accountments/Advertisements" style="edgeLabel;html=1;align=center;verticalAlign=middle;resizable=0;points=[];" connectable="0" vertex="1" parent="c6k_myTNWJ2E5DknQ_kU-10">
          <mxGeometry x="-0.0857" y="1" relative="1" as="geometry">
            <mxPoint as="offset" />
          </mxGeometry>
        </mxCell>
        <mxCell id="c6k_myTNWJ2E5DknQ_kU-12" value="" style="rounded=1;whiteSpace=wrap;html=1;container=1;collapsible=0;absoluteArcSize=1;arcSize=20;childLayout=stackLayout;horizontal=1;horizontalStack=0;resizeParent=1;resizeParentMax=0;resizeLast=0;" vertex="1" parent="1">
          <mxGeometry x="383" y="210" width="120" height="100" as="geometry" />
        </mxCell>
        <mxCell id="c6k_myTNWJ2E5DknQ_kU-13" value="1" style="whiteSpace=wrap;connectable=0;html=1;shape=mxgraph.basic.rect;size=10;rectStyle=rounded;bottomRightStyle=square;bottomLeftStyle=square;part=1;" vertex="1" parent="c6k_myTNWJ2E5DknQ_kU-12">
          <mxGeometry width="120" height="20" as="geometry" />
        </mxCell>
        <mxCell id="c6k_myTNWJ2E5DknQ_kU-14" value="Invitation/Circular Management" style="shape=mxgraph.bpmn.task;part=1;taskMarker=abstract;connectable=0;whiteSpace=wrap;html=1;fillColor=#dae8fc;strokeColor=#6c8ebf;" vertex="1" parent="c6k_myTNWJ2E5DknQ_kU-12">
          <mxGeometry y="20" width="120" height="60" as="geometry" />
        </mxCell>
        <mxCell id="c6k_myTNWJ2E5DknQ_kU-15" value="" style="whiteSpace=wrap;connectable=0;html=1;shape=mxgraph.basic.rect;size=10;rectStyle=rounded;topRightStyle=square;topLeftStyle=square;fillColor=#C0C0C0;part=1;" vertex="1" parent="c6k_myTNWJ2E5DknQ_kU-12">
          <mxGeometry y="80" width="120" height="20" as="geometry" />
        </mxCell>
        <mxCell id="c6k_myTNWJ2E5DknQ_kU-16" style="edgeStyle=orthogonalEdgeStyle;rounded=0;orthogonalLoop=1;jettySize=auto;html=1;entryX=0;entryY=0.5;entryDx=0;entryDy=0;exitX=0.25;exitY=0;exitDx=0;exitDy=0;" edge="1" parent="1" source="c6k_myTNWJ2E5DknQ_kU-18" target="c6k_myTNWJ2E5DknQ_kU-6">
          <mxGeometry relative="1" as="geometry" />
        </mxCell>
        <mxCell id="c6k_myTNWJ2E5DknQ_kU-17" value="Notify" style="edgeLabel;html=1;align=center;verticalAlign=middle;resizable=0;points=[];" connectable="0" vertex="1" parent="c6k_myTNWJ2E5DknQ_kU-16">
          <mxGeometry x="-0.298" y="-3" relative="1" as="geometry">
            <mxPoint as="offset" />
          </mxGeometry>
        </mxCell>
        <mxCell id="c6k_myTNWJ2E5DknQ_kU-18" value="" style="rounded=1;whiteSpace=wrap;html=1;container=1;collapsible=0;absoluteArcSize=1;arcSize=20;childLayout=stackLayout;horizontal=1;horizontalStack=0;resizeParent=1;resizeParentMax=0;resizeLast=0;" vertex="1" parent="1">
          <mxGeometry x="83" y="880" width="120" height="100" as="geometry" />
        </mxCell>
        <mxCell id="c6k_myTNWJ2E5DknQ_kU-19" value="6" style="whiteSpace=wrap;connectable=0;html=1;shape=mxgraph.basic.rect;size=10;rectStyle=rounded;bottomRightStyle=square;bottomLeftStyle=square;part=1;" vertex="1" parent="c6k_myTNWJ2E5DknQ_kU-18">
          <mxGeometry width="120" height="20" as="geometry" />
        </mxCell>
        <mxCell id="c6k_myTNWJ2E5DknQ_kU-20" value="Notification" style="shape=mxgraph.bpmn.task;part=1;taskMarker=abstract;connectable=0;whiteSpace=wrap;html=1;fillColor=#dae8fc;strokeColor=#6c8ebf;" vertex="1" parent="c6k_myTNWJ2E5DknQ_kU-18">
          <mxGeometry y="20" width="120" height="60" as="geometry" />
        </mxCell>
        <mxCell id="c6k_myTNWJ2E5DknQ_kU-21" value="" style="whiteSpace=wrap;connectable=0;html=1;shape=mxgraph.basic.rect;size=10;rectStyle=rounded;topRightStyle=square;topLeftStyle=square;fillColor=#C0C0C0;part=1;" vertex="1" parent="c6k_myTNWJ2E5DknQ_kU-18">
          <mxGeometry y="80" width="120" height="20" as="geometry" />
        </mxCell>
        <mxCell id="c6k_myTNWJ2E5DknQ_kU-22" style="edgeStyle=orthogonalEdgeStyle;rounded=0;orthogonalLoop=1;jettySize=auto;html=1;" edge="1" parent="1" source="c6k_myTNWJ2E5DknQ_kU-24" target="c6k_myTNWJ2E5DknQ_kU-47">
          <mxGeometry relative="1" as="geometry" />
        </mxCell>
        <mxCell id="c6k_myTNWJ2E5DknQ_kU-23" value="Store submitted proposals" style="edgeLabel;html=1;align=center;verticalAlign=middle;resizable=0;points=[];" connectable="0" vertex="1" parent="c6k_myTNWJ2E5DknQ_kU-22">
          <mxGeometry x="-0.0571" y="1" relative="1" as="geometry">
            <mxPoint as="offset" />
          </mxGeometry>
        </mxCell>
        <mxCell id="c6k_myTNWJ2E5DknQ_kU-24" value="" style="rounded=1;whiteSpace=wrap;html=1;container=1;collapsible=0;absoluteArcSize=1;arcSize=20;childLayout=stackLayout;horizontal=1;horizontalStack=0;resizeParent=1;resizeParentMax=0;resizeLast=0;fillColor=#dae8fc;strokeColor=#6c8ebf;" vertex="1" parent="1">
          <mxGeometry x="133" y="560" width="120" height="100" as="geometry" />
        </mxCell>
        <mxCell id="c6k_myTNWJ2E5DknQ_kU-25" value="2" style="whiteSpace=wrap;connectable=0;html=1;shape=mxgraph.basic.rect;size=10;rectStyle=rounded;bottomRightStyle=square;bottomLeftStyle=square;part=1;" vertex="1" parent="c6k_myTNWJ2E5DknQ_kU-24">
          <mxGeometry width="120" height="20" as="geometry" />
        </mxCell>
        <mxCell id="c6k_myTNWJ2E5DknQ_kU-26" value="Proposal Submission" style="shape=mxgraph.bpmn.task;part=1;taskMarker=abstract;connectable=0;whiteSpace=wrap;html=1;fillColor=#dae8fc;strokeColor=#6c8ebf;" vertex="1" parent="c6k_myTNWJ2E5DknQ_kU-24">
          <mxGeometry y="20" width="120" height="60" as="geometry" />
        </mxCell>
        <mxCell id="c6k_myTNWJ2E5DknQ_kU-27" value="" style="whiteSpace=wrap;connectable=0;html=1;shape=mxgraph.basic.rect;size=10;rectStyle=rounded;topRightStyle=square;topLeftStyle=square;fillColor=#C0C0C0;part=1;" vertex="1" parent="c6k_myTNWJ2E5DknQ_kU-24">
          <mxGeometry y="80" width="120" height="20" as="geometry" />
        </mxCell>
        <mxCell id="c6k_myTNWJ2E5DknQ_kU-28" style="edgeStyle=orthogonalEdgeStyle;rounded=0;orthogonalLoop=1;jettySize=auto;html=1;entryX=1;entryY=0.5;entryDx=0;entryDy=0;exitX=0.5;exitY=1;exitDx=0;exitDy=0;" edge="1" parent="1" source="c6k_myTNWJ2E5DknQ_kU-30" target="c6k_myTNWJ2E5DknQ_kU-52">
          <mxGeometry relative="1" as="geometry" />
        </mxCell>
        <mxCell id="c6k_myTNWJ2E5DknQ_kU-29" value="Funding data" style="edgeLabel;html=1;align=center;verticalAlign=middle;resizable=0;points=[];" connectable="0" vertex="1" parent="c6k_myTNWJ2E5DknQ_kU-28">
          <mxGeometry x="0.02" y="-3" relative="1" as="geometry">
            <mxPoint as="offset" />
          </mxGeometry>
        </mxCell>
        <mxCell id="c6k_myTNWJ2E5DknQ_kU-30" value="" style="rounded=1;whiteSpace=wrap;html=1;container=1;collapsible=0;absoluteArcSize=1;arcSize=20;childLayout=stackLayout;horizontal=1;horizontalStack=0;resizeParent=1;resizeParentMax=0;resizeLast=0;" vertex="1" parent="1">
          <mxGeometry x="663" y="710" width="120" height="100" as="geometry" />
        </mxCell>
        <mxCell id="c6k_myTNWJ2E5DknQ_kU-31" value="5" style="whiteSpace=wrap;connectable=0;html=1;shape=mxgraph.basic.rect;size=10;rectStyle=rounded;bottomRightStyle=square;bottomLeftStyle=square;part=1;" vertex="1" parent="c6k_myTNWJ2E5DknQ_kU-30">
          <mxGeometry width="120" height="20" as="geometry" />
        </mxCell>
        <mxCell id="c6k_myTNWJ2E5DknQ_kU-32" value="Project Selection" style="shape=mxgraph.bpmn.task;part=1;taskMarker=abstract;connectable=0;whiteSpace=wrap;html=1;fillColor=#dae8fc;strokeColor=#6c8ebf;" vertex="1" parent="c6k_myTNWJ2E5DknQ_kU-30">
          <mxGeometry y="20" width="120" height="60" as="geometry" />
        </mxCell>
        <mxCell id="c6k_myTNWJ2E5DknQ_kU-33" value="" style="whiteSpace=wrap;connectable=0;html=1;shape=mxgraph.basic.rect;size=10;rectStyle=rounded;topRightStyle=square;topLeftStyle=square;fillColor=#C0C0C0;part=1;" vertex="1" parent="c6k_myTNWJ2E5DknQ_kU-30">
          <mxGeometry y="80" width="120" height="20" as="geometry" />
        </mxCell>
        <mxCell id="c6k_myTNWJ2E5DknQ_kU-34" style="edgeStyle=orthogonalEdgeStyle;rounded=0;orthogonalLoop=1;jettySize=auto;html=1;entryX=0.5;entryY=1;entryDx=0;entryDy=0;" edge="1" parent="1" source="c6k_myTNWJ2E5DknQ_kU-38" target="c6k_myTNWJ2E5DknQ_kU-9">
          <mxGeometry relative="1" as="geometry" />
        </mxCell>
        <mxCell id="c6k_myTNWJ2E5DknQ_kU-35" value="Assign reviewers" style="edgeLabel;html=1;align=center;verticalAlign=middle;resizable=0;points=[];" connectable="0" vertex="1" parent="c6k_myTNWJ2E5DknQ_kU-34">
          <mxGeometry x="0.0421" y="-2" relative="1" as="geometry">
            <mxPoint as="offset" />
          </mxGeometry>
        </mxCell>
        <mxCell id="c6k_myTNWJ2E5DknQ_kU-36" style="edgeStyle=orthogonalEdgeStyle;rounded=0;orthogonalLoop=1;jettySize=auto;html=1;exitX=1;exitY=0.75;exitDx=0;exitDy=0;entryX=0.5;entryY=0;entryDx=0;entryDy=0;" edge="1" parent="1" source="c6k_myTNWJ2E5DknQ_kU-38" target="c6k_myTNWJ2E5DknQ_kU-30">
          <mxGeometry relative="1" as="geometry" />
        </mxCell>
        <mxCell id="c6k_myTNWJ2E5DknQ_kU-37" value="Shortlisting" style="edgeLabel;html=1;align=center;verticalAlign=middle;resizable=0;points=[];" connectable="0" vertex="1" parent="c6k_myTNWJ2E5DknQ_kU-36">
          <mxGeometry x="0.3524" y="-5" relative="1" as="geometry">
            <mxPoint as="offset" />
          </mxGeometry>
        </mxCell>
        <mxCell id="c6k_myTNWJ2E5DknQ_kU-38" value="" style="rounded=1;whiteSpace=wrap;html=1;container=1;collapsible=0;absoluteArcSize=1;arcSize=20;childLayout=stackLayout;horizontal=1;horizontalStack=0;resizeParent=1;resizeParentMax=0;resizeLast=0;fillColor=#dae8fc;strokeColor=#6c8ebf;" vertex="1" parent="1">
          <mxGeometry x="483" y="580" width="120" height="100" as="geometry" />
        </mxCell>
        <mxCell id="c6k_myTNWJ2E5DknQ_kU-39" value="3" style="whiteSpace=wrap;connectable=0;html=1;shape=mxgraph.basic.rect;size=10;rectStyle=rounded;bottomRightStyle=square;bottomLeftStyle=square;part=1;" vertex="1" parent="c6k_myTNWJ2E5DknQ_kU-38">
          <mxGeometry width="120" height="20" as="geometry" />
        </mxCell>
        <mxCell id="c6k_myTNWJ2E5DknQ_kU-40" value="Evaluation(potential)" style="shape=mxgraph.bpmn.task;part=1;taskMarker=abstract;connectable=0;whiteSpace=wrap;html=1;fillColor=#dae8fc;strokeColor=#6c8ebf;" vertex="1" parent="c6k_myTNWJ2E5DknQ_kU-38">
          <mxGeometry y="20" width="120" height="60" as="geometry" />
        </mxCell>
        <mxCell id="c6k_myTNWJ2E5DknQ_kU-41" value="" style="whiteSpace=wrap;connectable=0;html=1;shape=mxgraph.basic.rect;size=10;rectStyle=rounded;topRightStyle=square;topLeftStyle=square;fillColor=#C0C0C0;part=1;" vertex="1" parent="c6k_myTNWJ2E5DknQ_kU-38">
          <mxGeometry y="80" width="120" height="20" as="geometry" />
        </mxCell>
        <mxCell id="c6k_myTNWJ2E5DknQ_kU-42" value="&lt;span style=&quot;text-wrap: nowrap;&quot;&gt;Research project information&lt;/span&gt;" style="shape=datastore;whiteSpace=wrap;html=1;fillColor=#d5e8d4;strokeColor=#82b366;" vertex="1" parent="1">
          <mxGeometry x="593" y="210" width="190" height="100" as="geometry" />
        </mxCell>
        <mxCell id="c6k_myTNWJ2E5DknQ_kU-43" style="edgeStyle=orthogonalEdgeStyle;rounded=0;orthogonalLoop=1;jettySize=auto;html=1;entryX=0;entryY=0.5;entryDx=0;entryDy=0;" edge="1" parent="1" source="c6k_myTNWJ2E5DknQ_kU-47" target="c6k_myTNWJ2E5DknQ_kU-38">
          <mxGeometry relative="1" as="geometry" />
        </mxCell>
        <mxCell id="c6k_myTNWJ2E5DknQ_kU-44" value="Submitted Proposals" style="edgeLabel;html=1;align=center;verticalAlign=middle;resizable=0;points=[];" connectable="0" vertex="1" parent="c6k_myTNWJ2E5DknQ_kU-43">
          <mxGeometry x="-0.2657" y="-1" relative="1" as="geometry">
            <mxPoint as="offset" />
          </mxGeometry>
        </mxCell>
        <mxCell id="c6k_myTNWJ2E5DknQ_kU-45" style="edgeStyle=orthogonalEdgeStyle;rounded=0;orthogonalLoop=1;jettySize=auto;html=1;exitX=0.85;exitY=0.05;exitDx=0;exitDy=0;exitPerimeter=0;entryX=0;entryY=0.5;entryDx=0;entryDy=0;" edge="1" parent="1" source="c6k_myTNWJ2E5DknQ_kU-47" target="c6k_myTNWJ2E5DknQ_kU-60">
          <mxGeometry relative="1" as="geometry" />
        </mxCell>
        <mxCell id="c6k_myTNWJ2E5DknQ_kU-46" value="Submitted Proposal" style="edgeLabel;html=1;align=center;verticalAlign=middle;resizable=0;points=[];" vertex="1" connectable="0" parent="c6k_myTNWJ2E5DknQ_kU-45">
          <mxGeometry x="0.0946" y="1" relative="1" as="geometry">
            <mxPoint x="1" as="offset" />
          </mxGeometry>
        </mxCell>
        <mxCell id="c6k_myTNWJ2E5DknQ_kU-47" value="&lt;span style=&quot;text-wrap: nowrap;&quot;&gt;Proposal information&lt;/span&gt;" style="shape=datastore;whiteSpace=wrap;html=1;fillColor=#d5e8d4;strokeColor=#82b366;" vertex="1" parent="1">
          <mxGeometry x="188" y="750" width="190" height="100" as="geometry" />
        </mxCell>
        <mxCell id="c6k_myTNWJ2E5DknQ_kU-48" style="edgeStyle=orthogonalEdgeStyle;rounded=0;orthogonalLoop=1;jettySize=auto;html=1;entryX=1;entryY=0.5;entryDx=0;entryDy=0;exitX=0.5;exitY=0;exitDx=0;exitDy=0;" edge="1" parent="1" source="c6k_myTNWJ2E5DknQ_kU-52" target="c6k_myTNWJ2E5DknQ_kU-18">
          <mxGeometry relative="1" as="geometry" />
        </mxCell>
        <mxCell id="c6k_myTNWJ2E5DknQ_kU-49" value="Selection/rejection data" style="edgeLabel;html=1;align=center;verticalAlign=middle;resizable=0;points=[];" connectable="0" vertex="1" parent="c6k_myTNWJ2E5DknQ_kU-48">
          <mxGeometry x="-0.0049" relative="1" as="geometry">
            <mxPoint as="offset" />
          </mxGeometry>
        </mxCell>
        <mxCell id="c6k_myTNWJ2E5DknQ_kU-50" style="edgeStyle=orthogonalEdgeStyle;rounded=0;orthogonalLoop=1;jettySize=auto;html=1;entryX=0;entryY=0.5;entryDx=0;entryDy=0;exitX=0;exitY=0.5;exitDx=0;exitDy=0;" edge="1" parent="1" source="c6k_myTNWJ2E5DknQ_kU-52" target="c6k_myTNWJ2E5DknQ_kU-3">
          <mxGeometry relative="1" as="geometry">
            <Array as="points">
              <mxPoint x="63" y="1010" />
              <mxPoint x="63" y="170" />
            </Array>
          </mxGeometry>
        </mxCell>
        <mxCell id="c6k_myTNWJ2E5DknQ_kU-51" value="Reports" style="edgeLabel;html=1;align=center;verticalAlign=middle;resizable=0;points=[];" connectable="0" vertex="1" parent="c6k_myTNWJ2E5DknQ_kU-50">
          <mxGeometry x="0.3302" y="4" relative="1" as="geometry">
            <mxPoint as="offset" />
          </mxGeometry>
        </mxCell>
        <mxCell id="c6k_myTNWJ2E5DknQ_kU-52" value="&lt;span style=&quot;text-wrap: nowrap;&quot;&gt;Evaluation data&lt;/span&gt;" style="shape=datastore;whiteSpace=wrap;html=1;fillColor=#d5e8d4;strokeColor=#82b366;" vertex="1" parent="1">
          <mxGeometry x="403" y="960" width="190" height="100" as="geometry" />
        </mxCell>
        <mxCell id="c6k_myTNWJ2E5DknQ_kU-53" style="edgeStyle=orthogonalEdgeStyle;rounded=0;orthogonalLoop=1;jettySize=auto;html=1;" edge="1" parent="1" source="c6k_myTNWJ2E5DknQ_kU-42" target="c6k_myTNWJ2E5DknQ_kU-12">
          <mxGeometry relative="1" as="geometry" />
        </mxCell>
        <mxCell id="c6k_myTNWJ2E5DknQ_kU-54" value="UGC info" style="edgeLabel;html=1;align=center;verticalAlign=middle;resizable=0;points=[];" connectable="0" vertex="1" parent="c6k_myTNWJ2E5DknQ_kU-53">
          <mxGeometry y="-2" relative="1" as="geometry">
            <mxPoint as="offset" />
          </mxGeometry>
        </mxCell>
        <mxCell id="c6k_myTNWJ2E5DknQ_kU-55" style="edgeStyle=orthogonalEdgeStyle;rounded=0;orthogonalLoop=1;jettySize=auto;html=1;exitX=0.5;exitY=1;exitDx=0;exitDy=0;entryX=0.732;entryY=-0.03;entryDx=0;entryDy=0;entryPerimeter=0;" edge="1" parent="1" source="c6k_myTNWJ2E5DknQ_kU-38" target="c6k_myTNWJ2E5DknQ_kU-52">
          <mxGeometry relative="1" as="geometry" />
        </mxCell>
        <mxCell id="c6k_myTNWJ2E5DknQ_kU-56" value="Final Evaluation" style="edgeLabel;html=1;align=center;verticalAlign=middle;resizable=0;points=[];" connectable="0" vertex="1" parent="c6k_myTNWJ2E5DknQ_kU-55">
          <mxGeometry x="0.036" y="-1" relative="1" as="geometry">
            <mxPoint as="offset" />
          </mxGeometry>
        </mxCell>
        <mxCell id="c6k_myTNWJ2E5DknQ_kU-57" value="&lt;h1 style=&quot;font-size: 25px;&quot;&gt;&lt;b style=&quot;font-size: 25px;&quot;&gt;Data Flow Diagram&lt;/b&gt;&lt;/h1&gt;" style="text;html=1;align=center;verticalAlign=middle;whiteSpace=wrap;rounded=0;fontSize=25;" vertex="1" parent="1">
          <mxGeometry x="273" y="10" width="250" height="70" as="geometry" />
        </mxCell>
        <mxCell id="c6k_myTNWJ2E5DknQ_kU-58" style="edgeStyle=orthogonalEdgeStyle;rounded=0;orthogonalLoop=1;jettySize=auto;html=1;exitX=0.5;exitY=1;exitDx=0;exitDy=0;entryX=0.5;entryY=0;entryDx=0;entryDy=0;" edge="1" parent="1" source="c6k_myTNWJ2E5DknQ_kU-60" target="c6k_myTNWJ2E5DknQ_kU-38">
          <mxGeometry relative="1" as="geometry" />
        </mxCell>
        <mxCell id="c6k_myTNWJ2E5DknQ_kU-59" value="Final Evaluation" style="edgeLabel;html=1;align=center;verticalAlign=middle;resizable=0;points=[];" vertex="1" connectable="0" parent="c6k_myTNWJ2E5DknQ_kU-58">
          <mxGeometry x="0.0154" y="1" relative="1" as="geometry">
            <mxPoint as="offset" />
          </mxGeometry>
        </mxCell>
        <mxCell id="c6k_myTNWJ2E5DknQ_kU-60" value="" style="rounded=1;whiteSpace=wrap;html=1;container=1;collapsible=0;absoluteArcSize=1;arcSize=20;childLayout=stackLayout;horizontal=1;horizontalStack=0;resizeParent=1;resizeParentMax=0;resizeLast=0;fillColor=#dae8fc;strokeColor=#6c8ebf;" vertex="1" parent="1">
          <mxGeometry x="378" y="390" width="120" height="100" as="geometry" />
        </mxCell>
        <mxCell id="c6k_myTNWJ2E5DknQ_kU-61" value="4" style="whiteSpace=wrap;connectable=0;html=1;shape=mxgraph.basic.rect;size=10;rectStyle=rounded;bottomRightStyle=square;bottomLeftStyle=square;part=1;" vertex="1" parent="c6k_myTNWJ2E5DknQ_kU-60">
          <mxGeometry width="120" height="20" as="geometry" />
        </mxCell>
        <mxCell id="c6k_myTNWJ2E5DknQ_kU-62" value="Final Check" style="shape=mxgraph.bpmn.task;part=1;taskMarker=abstract;connectable=0;whiteSpace=wrap;html=1;fillColor=#dae8fc;strokeColor=#6c8ebf;" vertex="1" parent="c6k_myTNWJ2E5DknQ_kU-60">
          <mxGeometry y="20" width="120" height="60" as="geometry" />
        </mxCell>
        <mxCell id="c6k_myTNWJ2E5DknQ_kU-63" value="" style="whiteSpace=wrap;connectable=0;html=1;shape=mxgraph.basic.rect;size=10;rectStyle=rounded;topRightStyle=square;topLeftStyle=square;fillColor=#C0C0C0;part=1;" vertex="1" parent="c6k_myTNWJ2E5DknQ_kU-60">
          <mxGeometry y="80" width="120" height="20" as="geometry" />
        </mxCell>
      </root>
    </mxGraphModel>
  </diagram>
</mxfile>
